v -105.441558772843 -49.7056274847714 35.1471862576143
v -84.8528137423857 20.5887450304572 -84.8528137423857
v 35.1471862576143 -49.7056274847714 -105.441558772843
v 14.5584412271571 -120 14.5584412271571
v -35.1471862576143 49.7056274847714 105.441558772843
v -14.5584412271571 120 -14.5584412271571
v 105.441558772843 49.7056274847714 -35.1471862576143
v 84.8528137423857 -20.5887450304572 84.8528137423857
vn -0.4 -0.282842712474619 -8.88178419700125E-17
vn -0.319035593728849 0.215482203135576 -0.319035593728849
vn -8.88178419700125E-17 -0.282842712474619 -0.4
vn 0.152368927062182 -0.451184463531092 0.152368927062182
vn -0.25 0.117851130197758 0.416666666666667
vn 0.0585786437626905 0.482842712474619 0.0585786437626905
vn 0.416666666666666 0.117851130197758 -0.25
vn 0.34142135623731 0.0828427124746188 0.34142135623731
f 1//1 2//2 3//3
f 1//1 3//3 4//4
f 6//6 5//5 8//8
f 6//6 8//8 7//7
f 4//4 3//3 7//7
f 4//4 7//7 8//8
f 2//2 1//1 5//5
f 2//2 5//5 6//6
f 5//5 1//1 4//4
f 5//5 4//4 8//8
f 2//2 6//6 7//7
f 2//2 7//7 3//3
